<mxfile host="app.diagrams.net" modified="2023-12-28T02:15:12.917Z" agent="Mozilla/5.0 (Windows NT 10.0; Win64; x64) AppleWebKit/537.36 (KHTML, like Gecko) Chrome/120.0.0.0 Safari/537.36" etag="nkhf8cWHMf1yDjt4PUYL" version="22.1.12" type="github">
  <diagram id="prtHgNgQTEPvFCAcTncT" name="Page-1">
    <mxGraphModel dx="3000" dy="1514" grid="1" gridSize="10" guides="1" tooltips="1" connect="1" arrows="1" fold="1" page="1" pageScale="1" pageWidth="827" pageHeight="1169" math="0" shadow="0">
      <root>
        <mxCell id="0" />
        <mxCell id="1" parent="0" />
        <mxCell id="dNxyNK7c78bLwvsdeMH5-19" value="Ordering" style="swimlane;html=1;childLayout=stackLayout;resizeParent=1;resizeParentMax=0;horizontal=0;startSize=20;horizontalStack=0;" parent="1" vertex="1">
          <mxGeometry x="20" y="10" width="1300" height="800" as="geometry" />
        </mxCell>
        <mxCell id="dNxyNK7c78bLwvsdeMH5-20" value="Warehousing" style="swimlane;html=1;startSize=20;horizontal=0;" parent="dNxyNK7c78bLwvsdeMH5-19" vertex="1">
          <mxGeometry x="20" width="1280" height="200" as="geometry" />
        </mxCell>
        <mxCell id="a9WD-MsXqlEqTR5yQKDu-18" style="edgeStyle=orthogonalEdgeStyle;rounded=0;orthogonalLoop=1;jettySize=auto;html=1;entryX=0;entryY=0.5;entryDx=0;entryDy=0;entryPerimeter=0;" parent="dNxyNK7c78bLwvsdeMH5-20" target="a9WD-MsXqlEqTR5yQKDu-16" edge="1">
          <mxGeometry relative="1" as="geometry">
            <mxPoint x="340" y="140" as="sourcePoint" />
          </mxGeometry>
        </mxCell>
        <mxCell id="a9WD-MsXqlEqTR5yQKDu-15" style="edgeStyle=orthogonalEdgeStyle;rounded=0;orthogonalLoop=1;jettySize=auto;html=1;" parent="dNxyNK7c78bLwvsdeMH5-20" target="a9WD-MsXqlEqTR5yQKDu-14" edge="1">
          <mxGeometry relative="1" as="geometry">
            <mxPoint x="340" y="230" as="sourcePoint" />
          </mxGeometry>
        </mxCell>
        <mxCell id="a9WD-MsXqlEqTR5yQKDu-19" style="edgeStyle=orthogonalEdgeStyle;rounded=0;orthogonalLoop=1;jettySize=auto;html=1;entryX=0.5;entryY=1;entryDx=0;entryDy=0;entryPerimeter=0;" parent="dNxyNK7c78bLwvsdeMH5-20" target="a9WD-MsXqlEqTR5yQKDu-16" edge="1">
          <mxGeometry relative="1" as="geometry">
            <mxPoint x="510" y="230" as="sourcePoint" />
          </mxGeometry>
        </mxCell>
        <mxCell id="a9WD-MsXqlEqTR5yQKDu-22" style="edgeStyle=orthogonalEdgeStyle;rounded=0;orthogonalLoop=1;jettySize=auto;html=1;" parent="dNxyNK7c78bLwvsdeMH5-20" target="a9WD-MsXqlEqTR5yQKDu-21" edge="1">
          <mxGeometry relative="1" as="geometry">
            <mxPoint x="640" y="140" as="sourcePoint" />
          </mxGeometry>
        </mxCell>
        <mxCell id="a9WD-MsXqlEqTR5yQKDu-24" style="edgeStyle=orthogonalEdgeStyle;rounded=0;orthogonalLoop=1;jettySize=auto;html=1;" parent="dNxyNK7c78bLwvsdeMH5-20" target="a9WD-MsXqlEqTR5yQKDu-23" edge="1">
          <mxGeometry relative="1" as="geometry">
            <mxPoint x="730" y="140" as="sourcePoint" />
          </mxGeometry>
        </mxCell>
        <mxCell id="a9WD-MsXqlEqTR5yQKDu-26" style="edgeStyle=orthogonalEdgeStyle;rounded=0;orthogonalLoop=1;jettySize=auto;html=1;" parent="dNxyNK7c78bLwvsdeMH5-20" target="a9WD-MsXqlEqTR5yQKDu-25" edge="1">
          <mxGeometry relative="1" as="geometry">
            <mxPoint x="890" y="140" as="sourcePoint" />
          </mxGeometry>
        </mxCell>
        <mxCell id="ewz4xtXbk7xDX2HzivqL-4" value="allocate requited food" style="points=[[0.25,0,0],[0.5,0,0],[0.75,0,0],[1,0.25,0],[1,0.5,0],[1,0.75,0],[0.75,1,0],[0.5,1,0],[0.25,1,0],[0,0.75,0],[0,0.5,0],[0,0.25,0]];shape=mxgraph.bpmn.task;whiteSpace=wrap;rectStyle=rounded;size=10;html=1;taskMarker=abstract;" vertex="1" parent="dNxyNK7c78bLwvsdeMH5-20">
          <mxGeometry x="130" y="80" width="120" height="80" as="geometry" />
        </mxCell>
        <mxCell id="ewz4xtXbk7xDX2HzivqL-11" value="" style="points=[[0.25,0.25,0],[0.5,0,0],[0.75,0.25,0],[1,0.5,0],[0.75,0.75,0],[0.5,1,0],[0.25,0.75,0],[0,0.5,0]];shape=mxgraph.bpmn.gateway2;html=1;verticalLabelPosition=bottom;labelBackgroundColor=#ffffff;verticalAlign=top;align=center;perimeter=rhombusPerimeter;outlineConnect=0;outline=none;symbol=none;gwType=parallel;" vertex="1" parent="dNxyNK7c78bLwvsdeMH5-20">
          <mxGeometry x="410" y="90" width="60" height="60" as="geometry" />
        </mxCell>
        <mxCell id="ewz4xtXbk7xDX2HzivqL-12" style="edgeStyle=orthogonalEdgeStyle;rounded=0;orthogonalLoop=1;jettySize=auto;html=1;entryX=0;entryY=0.5;entryDx=0;entryDy=0;entryPerimeter=0;" edge="1" parent="dNxyNK7c78bLwvsdeMH5-20" source="ewz4xtXbk7xDX2HzivqL-4" target="ewz4xtXbk7xDX2HzivqL-11">
          <mxGeometry relative="1" as="geometry" />
        </mxCell>
        <mxCell id="dNxyNK7c78bLwvsdeMH5-21" value="Delivery&lt;span lang=&quot;en-US&quot;&gt;&amp;nbsp;&amp;nbsp;&lt;/span&gt;" style="swimlane;html=1;startSize=20;horizontal=0;" parent="dNxyNK7c78bLwvsdeMH5-19" vertex="1">
          <mxGeometry x="20" y="200" width="1280" height="190" as="geometry" />
        </mxCell>
        <mxCell id="ewz4xtXbk7xDX2HzivqL-1" value="Schedule collection of&lt;span lang=&quot;en-US&quot;&gt; &lt;/span&gt;&lt;span lang=&quot;zh-CN&quot;&gt;assembled orders&lt;/span&gt;" style="points=[[0.25,0,0],[0.5,0,0],[0.75,0,0],[1,0.25,0],[1,0.5,0],[1,0.75,0],[0.75,1,0],[0.5,1,0],[0.25,1,0],[0,0.75,0],[0,0.5,0],[0,0.25,0]];shape=mxgraph.bpmn.task;whiteSpace=wrap;rectStyle=rounded;size=10;html=1;taskMarker=abstract;" vertex="1" parent="dNxyNK7c78bLwvsdeMH5-21">
          <mxGeometry x="130" y="40" width="120" height="80" as="geometry" />
        </mxCell>
        <mxCell id="ewz4xtXbk7xDX2HzivqL-14" value="Prepare vehicle for food" style="points=[[0.25,0,0],[0.5,0,0],[0.75,0,0],[1,0.25,0],[1,0.5,0],[1,0.75,0],[0.75,1,0],[0.5,1,0],[0.25,1,0],[0,0.75,0],[0,0.5,0],[0,0.25,0]];shape=mxgraph.bpmn.task;whiteSpace=wrap;rectStyle=rounded;size=10;html=1;taskMarker=abstract;" vertex="1" parent="dNxyNK7c78bLwvsdeMH5-21">
          <mxGeometry x="580" y="30" width="120" height="80" as="geometry" />
        </mxCell>
        <mxCell id="ewz4xtXbk7xDX2HzivqL-17" value="" style="points=[[0.25,0.25,0],[0.5,0,0],[0.75,0.25,0],[1,0.5,0],[0.75,0.75,0],[0.5,1,0],[0.25,0.75,0],[0,0.5,0]];shape=mxgraph.bpmn.gateway2;html=1;verticalLabelPosition=bottom;labelBackgroundColor=#ffffff;verticalAlign=top;align=center;perimeter=rhombusPerimeter;outlineConnect=0;outline=none;symbol=none;gwType=parallel;" vertex="1" parent="dNxyNK7c78bLwvsdeMH5-21">
          <mxGeometry x="810" y="40" width="60" height="60" as="geometry" />
        </mxCell>
        <mxCell id="ewz4xtXbk7xDX2HzivqL-18" style="edgeStyle=orthogonalEdgeStyle;rounded=0;orthogonalLoop=1;jettySize=auto;html=1;entryX=0;entryY=0.5;entryDx=0;entryDy=0;entryPerimeter=0;" edge="1" parent="dNxyNK7c78bLwvsdeMH5-21" source="ewz4xtXbk7xDX2HzivqL-14" target="ewz4xtXbk7xDX2HzivqL-17">
          <mxGeometry relative="1" as="geometry" />
        </mxCell>
        <mxCell id="a9WD-MsXqlEqTR5yQKDu-48" value="send to flight" style="points=[[0.25,0,0],[0.5,0,0],[0.75,0,0],[1,0.25,0],[1,0.5,0],[1,0.75,0],[0.75,1,0],[0.5,1,0],[0.25,1,0],[0,0.75,0],[0,0.5,0],[0,0.25,0]];shape=mxgraph.bpmn.task;whiteSpace=wrap;rectStyle=rounded;size=10;html=1;taskMarker=abstract;" parent="dNxyNK7c78bLwvsdeMH5-21" vertex="1">
          <mxGeometry x="960" y="30" width="120" height="80" as="geometry" />
        </mxCell>
        <mxCell id="ewz4xtXbk7xDX2HzivqL-21" style="edgeStyle=orthogonalEdgeStyle;rounded=0;orthogonalLoop=1;jettySize=auto;html=1;entryX=0;entryY=0.5;entryDx=0;entryDy=0;entryPerimeter=0;" edge="1" parent="dNxyNK7c78bLwvsdeMH5-21" source="ewz4xtXbk7xDX2HzivqL-17" target="a9WD-MsXqlEqTR5yQKDu-48">
          <mxGeometry relative="1" as="geometry" />
        </mxCell>
        <mxCell id="a9WD-MsXqlEqTR5yQKDu-1" value="Production &lt;span lang=&quot;en-US&quot;&gt;&amp;nbsp;&lt;/span&gt;" style="swimlane;html=1;startSize=20;horizontal=0;" parent="dNxyNK7c78bLwvsdeMH5-19" vertex="1">
          <mxGeometry x="20" y="390" width="1280" height="200" as="geometry" />
        </mxCell>
        <mxCell id="a9WD-MsXqlEqTR5yQKDu-58" value="Assemble&lt;br/&gt;materials for delivery" style="points=[[0.25,0,0],[0.5,0,0],[0.75,0,0],[1,0.25,0],[1,0.5,0],[1,0.75,0],[0.75,1,0],[0.5,1,0],[0.25,1,0],[0,0.75,0],[0,0.5,0],[0,0.25,0]];shape=mxgraph.bpmn.task;whiteSpace=wrap;rectStyle=rounded;size=10;html=1;taskMarker=abstract;" parent="a9WD-MsXqlEqTR5yQKDu-1" vertex="1">
          <mxGeometry x="380" y="55" width="120" height="80" as="geometry" />
        </mxCell>
        <mxCell id="a9WD-MsXqlEqTR5yQKDu-2" value="Sales &amp;amp; Marketing&lt;br&gt;&lt;span lang=&quot;en-US&quot;&gt;&lt;/span&gt;" style="swimlane;html=1;startSize=20;horizontal=0;" parent="dNxyNK7c78bLwvsdeMH5-19" vertex="1">
          <mxGeometry x="20" y="590" width="1280" height="210" as="geometry" />
        </mxCell>
        <mxCell id="a9WD-MsXqlEqTR5yQKDu-72" style="edgeStyle=orthogonalEdgeStyle;rounded=0;orthogonalLoop=1;jettySize=auto;html=1;" parent="a9WD-MsXqlEqTR5yQKDu-2" source="a9WD-MsXqlEqTR5yQKDu-70" edge="1">
          <mxGeometry relative="1" as="geometry">
            <mxPoint x="130" y="100" as="targetPoint" />
          </mxGeometry>
        </mxCell>
        <mxCell id="a9WD-MsXqlEqTR5yQKDu-70" value="" style="points=[[0.145,0.145,0],[0.5,0,0],[0.855,0.145,0],[1,0.5,0],[0.855,0.855,0],[0.5,1,0],[0.145,0.855,0],[0,0.5,0]];shape=mxgraph.bpmn.event;html=1;verticalLabelPosition=bottom;labelBackgroundColor=#ffffff;verticalAlign=top;align=center;perimeter=ellipsePerimeter;outlineConnect=0;aspect=fixed;outline=standard;symbol=general;" parent="a9WD-MsXqlEqTR5yQKDu-2" vertex="1">
          <mxGeometry x="40" y="75" width="50" height="50" as="geometry" />
        </mxCell>
        <mxCell id="a9WD-MsXqlEqTR5yQKDu-74" style="edgeStyle=orthogonalEdgeStyle;rounded=0;orthogonalLoop=1;jettySize=auto;html=1;" parent="a9WD-MsXqlEqTR5yQKDu-2" target="a9WD-MsXqlEqTR5yQKDu-73" edge="1">
          <mxGeometry relative="1" as="geometry">
            <mxPoint x="250" y="100" as="sourcePoint" />
          </mxGeometry>
        </mxCell>
        <mxCell id="a9WD-MsXqlEqTR5yQKDu-76" style="edgeStyle=orthogonalEdgeStyle;rounded=0;orthogonalLoop=1;jettySize=auto;html=1;" parent="a9WD-MsXqlEqTR5yQKDu-2" target="a9WD-MsXqlEqTR5yQKDu-75" edge="1">
          <mxGeometry relative="1" as="geometry">
            <mxPoint x="420" y="100" as="sourcePoint" />
          </mxGeometry>
        </mxCell>
        <mxCell id="a9WD-MsXqlEqTR5yQKDu-79" style="edgeStyle=orthogonalEdgeStyle;rounded=0;orthogonalLoop=1;jettySize=auto;html=1;exitX=1;exitY=0.5;exitDx=0;exitDy=0;exitPerimeter=0;" parent="a9WD-MsXqlEqTR5yQKDu-2" target="a9WD-MsXqlEqTR5yQKDu-77" edge="1">
          <mxGeometry relative="1" as="geometry">
            <mxPoint x="520" y="100" as="sourcePoint" />
          </mxGeometry>
        </mxCell>
        <mxCell id="a9WD-MsXqlEqTR5yQKDu-80" value="yes" style="edgeLabel;html=1;align=center;verticalAlign=middle;resizable=0;points=[];" parent="a9WD-MsXqlEqTR5yQKDu-79" vertex="1" connectable="0">
          <mxGeometry x="0.0471" y="1" relative="1" as="geometry">
            <mxPoint as="offset" />
          </mxGeometry>
        </mxCell>
        <mxCell id="a9WD-MsXqlEqTR5yQKDu-81" style="edgeStyle=orthogonalEdgeStyle;rounded=0;orthogonalLoop=1;jettySize=auto;html=1;entryX=0.5;entryY=1;entryDx=0;entryDy=0;entryPerimeter=0;exitX=0.5;exitY=1;exitDx=0;exitDy=0;exitPerimeter=0;" parent="a9WD-MsXqlEqTR5yQKDu-2" source="a9WD-MsXqlEqTR5yQKDu-75" edge="1">
          <mxGeometry relative="1" as="geometry">
            <mxPoint x="190" y="140" as="targetPoint" />
          </mxGeometry>
        </mxCell>
        <mxCell id="a9WD-MsXqlEqTR5yQKDu-82" value="no" style="edgeLabel;html=1;align=center;verticalAlign=middle;resizable=0;points=[];" parent="a9WD-MsXqlEqTR5yQKDu-81" vertex="1" connectable="0">
          <mxGeometry x="-0.85" y="3" relative="1" as="geometry">
            <mxPoint as="offset" />
          </mxGeometry>
        </mxCell>
        <mxCell id="a9WD-MsXqlEqTR5yQKDu-86" style="edgeStyle=orthogonalEdgeStyle;rounded=0;orthogonalLoop=1;jettySize=auto;html=1;" parent="a9WD-MsXqlEqTR5yQKDu-2" target="a9WD-MsXqlEqTR5yQKDu-83" edge="1">
          <mxGeometry relative="1" as="geometry">
            <mxPoint x="680" y="100" as="sourcePoint" />
          </mxGeometry>
        </mxCell>
        <mxCell id="a9WD-MsXqlEqTR5yQKDu-88" style="edgeStyle=orthogonalEdgeStyle;rounded=0;orthogonalLoop=1;jettySize=auto;html=1;" parent="a9WD-MsXqlEqTR5yQKDu-2" source="a9WD-MsXqlEqTR5yQKDu-84" target="a9WD-MsXqlEqTR5yQKDu-85" edge="1">
          <mxGeometry relative="1" as="geometry" />
        </mxCell>
        <mxCell id="a9WD-MsXqlEqTR5yQKDu-84" value="Flight Confirm food arrived" style="points=[[0.25,0,0],[0.5,0,0],[0.75,0,0],[1,0.25,0],[1,0.5,0],[1,0.75,0],[0.75,1,0],[0.5,1,0],[0.25,1,0],[0,0.75,0],[0,0.5,0],[0,0.25,0]];shape=mxgraph.bpmn.task;whiteSpace=wrap;rectStyle=rounded;size=10;html=1;taskMarker=abstract;" parent="a9WD-MsXqlEqTR5yQKDu-2" vertex="1">
          <mxGeometry x="960" y="60" width="120" height="80" as="geometry" />
        </mxCell>
        <mxCell id="a9WD-MsXqlEqTR5yQKDu-85" value="" style="points=[[0.145,0.145,0],[0.5,0,0],[0.855,0.145,0],[1,0.5,0],[0.855,0.855,0],[0.5,1,0],[0.145,0.855,0],[0,0.5,0]];shape=mxgraph.bpmn.event;html=1;verticalLabelPosition=bottom;labelBackgroundColor=#ffffff;verticalAlign=top;align=center;perimeter=ellipsePerimeter;outlineConnect=0;aspect=fixed;outline=end;symbol=terminate2;" parent="a9WD-MsXqlEqTR5yQKDu-2" vertex="1">
          <mxGeometry x="1190" y="75" width="50" height="50" as="geometry" />
        </mxCell>
        <mxCell id="a9WD-MsXqlEqTR5yQKDu-46" value="reveive order from airline" style="points=[[0.25,0,0],[0.5,0,0],[0.75,0,0],[1,0.25,0],[1,0.5,0],[1,0.75,0],[0.75,1,0],[0.5,1,0],[0.25,1,0],[0,0.75,0],[0,0.5,0],[0,0.25,0]];shape=mxgraph.bpmn.task;whiteSpace=wrap;rectStyle=rounded;size=10;html=1;taskMarker=abstract;" parent="a9WD-MsXqlEqTR5yQKDu-2" vertex="1">
          <mxGeometry x="130" y="60" width="120" height="80" as="geometry" />
        </mxCell>
        <mxCell id="ewz4xtXbk7xDX2HzivqL-2" style="edgeStyle=orthogonalEdgeStyle;rounded=0;orthogonalLoop=1;jettySize=auto;html=1;" edge="1" parent="dNxyNK7c78bLwvsdeMH5-19" source="a9WD-MsXqlEqTR5yQKDu-46" target="ewz4xtXbk7xDX2HzivqL-1">
          <mxGeometry relative="1" as="geometry" />
        </mxCell>
        <mxCell id="ewz4xtXbk7xDX2HzivqL-5" style="edgeStyle=orthogonalEdgeStyle;rounded=0;orthogonalLoop=1;jettySize=auto;html=1;entryX=0.5;entryY=1;entryDx=0;entryDy=0;entryPerimeter=0;" edge="1" parent="dNxyNK7c78bLwvsdeMH5-19" source="ewz4xtXbk7xDX2HzivqL-1" target="ewz4xtXbk7xDX2HzivqL-4">
          <mxGeometry relative="1" as="geometry" />
        </mxCell>
        <mxCell id="ewz4xtXbk7xDX2HzivqL-15" style="edgeStyle=orthogonalEdgeStyle;rounded=0;orthogonalLoop=1;jettySize=auto;html=1;" edge="1" parent="dNxyNK7c78bLwvsdeMH5-19" source="ewz4xtXbk7xDX2HzivqL-11" target="a9WD-MsXqlEqTR5yQKDu-58">
          <mxGeometry relative="1" as="geometry" />
        </mxCell>
        <mxCell id="ewz4xtXbk7xDX2HzivqL-16" style="edgeStyle=orthogonalEdgeStyle;rounded=0;orthogonalLoop=1;jettySize=auto;html=1;" edge="1" parent="dNxyNK7c78bLwvsdeMH5-19" source="ewz4xtXbk7xDX2HzivqL-11" target="ewz4xtXbk7xDX2HzivqL-14">
          <mxGeometry relative="1" as="geometry" />
        </mxCell>
        <mxCell id="ewz4xtXbk7xDX2HzivqL-19" style="edgeStyle=orthogonalEdgeStyle;rounded=0;orthogonalLoop=1;jettySize=auto;html=1;entryX=0.5;entryY=1;entryDx=0;entryDy=0;entryPerimeter=0;" edge="1" parent="dNxyNK7c78bLwvsdeMH5-19" source="a9WD-MsXqlEqTR5yQKDu-58" target="ewz4xtXbk7xDX2HzivqL-17">
          <mxGeometry relative="1" as="geometry" />
        </mxCell>
        <mxCell id="a9WD-MsXqlEqTR5yQKDu-87" style="edgeStyle=orthogonalEdgeStyle;rounded=0;orthogonalLoop=1;jettySize=auto;html=1;" parent="dNxyNK7c78bLwvsdeMH5-19" source="a9WD-MsXqlEqTR5yQKDu-48" target="a9WD-MsXqlEqTR5yQKDu-84" edge="1">
          <mxGeometry relative="1" as="geometry">
            <mxPoint x="810" y="760" as="sourcePoint" />
          </mxGeometry>
        </mxCell>
      </root>
    </mxGraphModel>
  </diagram>
</mxfile>
